<?xml version="1.0" encoding="UTF-8"?>
<svg width="24px" height="24px" viewBox="0 0 24 24" version="1.1" xmlns="http://www.w3.org/2000/svg" xmlns:xlink="http://www.w3.org/1999/xlink">
    <g stroke="none" stroke-width="1" fill="none" fill-rule="evenodd">
        <rect x="0" y="0" width="24" height="24"></rect>
        <path d="M9.86586919,16.0155921 L8.15106831,17.7313709 C7.76284538,18.1191932 7.11504823,18.1192133 6.72679355,17.7313905 C6.33857647,17.3435677 6.33855159,16.6957654 6.72673333,16.3079726 L8.44160366,14.5934926 C8.83081066,14.2057005 9.47859976,14.2057891 9.86770401,14.5934926 L9.86586919,16.0155921 Z" fill="#000000" fill-rule="nonzero" opacity="0.3"></path>
        <path d="M15.5,8 C15.2219,8 15,7.77810237 15,7.5 C15,7.22189763 15.2219,7 15.5,7 C15.7781,7 16,7.22189763 16,7.5 C16,7.77810237 15.7781,8 15.5,8 Z M15.5,7 C14.6716,7 14,7.67157288 14,8.5 C14,9.32842712 14.6716,10 15.5,10 C16.3284,10 17,9.32842712 17,8.5 C17,7.67157288 16.3284,7 15.5,7 Z" fill="#000000" fill-rule="nonzero"></path>
        <path d="M5,8 L5,8 C4.44771525,8 4,7.55228475 4,7 L4,6 C4,4.8954305 4.8954305,4 6,4 L15,4 C16.1045695,4 17,4.8954305 17,6 L17,7 C17,7.55228475 16.5522847,8 16,8 L16,8 C15.4477153,8 15,7.55228475 15,7 L15,6 L6,6 L6,7 C6,7.55228475 5.55228475,8 5,8 Z" fill="#000000" fill-rule="nonzero"></path>
        <path d="M9,10 L9,10 C8.44771525,10 8,10.4477153 8,11 L8,13 C8,13.5522847 8.44771525,14 9,14 L9,14 C9.55228475,14 10,13.5522847 10,13 L10,11 C10,10.4477153 9.55228475,10 9,10 Z" fill="#000000" fill-rule="nonzero" opacity="0.3"></path>
        <rect fill="#000000" x="7" y="16" width="3" height="5" rx="1.5"></rect>
        <rect fill="#000000" x="14" y="16" width="3" height="5" rx="1.5"></rect>
        <path d="M12,9 C11.4477153,9 11,8.55228475 11,8 C11,7.44771525 11.4477153,7 12,7 C12.5522847,7 13,7.44771525 13,8 C13,8.55228475 12.5522847,9 12,9 Z M12,7 C10.8954305,7 10,7.8954305 10,9 C10,10.1045695 10.8954305,11 12,11 C13.1045695,11 14,10.1045695 14,9 C14,7.8954305 13.1045695,7 12,7 Z" fill="#000000" fill-rule="nonzero"></path>
    </g>
</svg> 